<?xml version="1.0" encoding="UTF-8" standalone="no"?>
<!--part of the rodentia icon theme by sixsixfive released under CC0 (https://creativecommons.org/publicdomain/zero/1.0/) on openclipart-->
<svg xmlns="http://www.w3.org/2000/svg" xmlns:xlink="http://www.w3.org/1999/xlink" viewBox="0 0 48 48">
 <g>
  <path mask = 'url(#mask)' d="m 23.901562,5.1753055 c -0.62345,0.00715 -1.17838,0.3435438 -1.490523,0.883273 L 2.758213,40.174999 c -0.3077536,0.546486 -0.2607546,1.224764 0.055204,1.766547 0.3159591,0.541783 0.8633411,0.882029 1.4905232,0.883272 l 39.3608548,-0.05521 c 0.510916,0.003 1.042347,-0.223897 1.380114,-0.607249 0.337765,-0.383351 0.453719,-0.873639 0.386432,-1.380115 -0.03031,-0.215088 -0.05999,-0.472648 -0.165614,-0.662454 L 25.44729,6.003374 C 25.122848,5.4709493 24.525011,5.1681528 23.901562,5.1753055 z" fill="white" stroke-linejoin="round"/>
  <mask id='mask'>
  <rect width = '100%' height = '100%' fill = 'white'/>
  <g transform="translate(0,1.29975)">
   <path d="m 24.009697,12.235055 c 0.788653,2.6e-5 1.460951,0.258603 2.016896,0.775729 0.555933,0.517178 0.833902,1.254121 0.833909,2.210829 -7e-6,0.788681 -0.181011,2.191457 -0.54301,4.208332 -0.762807,4.654391 -1.1636,7.92538 -1.202381,9.812977 -5e-6,1.111887 -0.368476,1.667825 -1.105414,1.667818 -0.478371,7e-6 -0.795127,-0.168068 -0.950268,-0.504224 -0.142222,-0.336141 -0.226259,-0.885616 -0.252113,-1.648425 -0.02586,-0.969651 -0.155149,-2.443536 -0.387865,-4.421657 -0.219792,-1.991023 -0.458975,-3.665304 -0.717549,-5.022848 -0.0905,-0.504204 -0.181006,-0.950248 -0.271505,-1.338134 -0.07757,-0.387843 -0.148684,-0.820958 -0.213326,-1.299346 -0.05172,-0.491273 -0.07757,-0.976103 -0.07757,-1.454493 -2e-6,-1.021352 0.290896,-1.771223 0.872696,-2.249615 0.594722,-0.491269 1.260556,-0.736917 1.997503,-0.736943 m -2.269008,24.357903 c -3e-6,-0.620581 0.213322,-1.144198 0.639976,-1.570853 0.439577,-0.439576 0.969658,-0.659366 1.590245,-0.65937 0.60765,4e-6 1.124802,0.219794 1.551459,0.65937 0.439573,0.426655 0.659363,0.950272 0.65937,1.570853 -7e-6,0.594726 -0.219797,1.105414 -0.65937,1.532065 -0.426657,0.426651 -0.943809,0.639976 -1.551459,0.639977 -0.620587,-10e-7 -1.150668,-0.213326 -1.590245,-0.639977 -0.426654,-0.426651 -0.639979,-0.937339 -0.639976,-1.532065"/>
  </g>
  </mask>
 </g>
</svg>
